{"title":"The Host 2013 HDRiP READNFO XViD - JUSTiCE","uid":8397494,"size":1839977264,"categoryP":"video","categoryS":"movies","magnet":"?xt=urn:btih:cdc0590ce60477e4858ed411f040ef1eaaab2f68&amp;dn=The+Host+2013+HDRiP+READNFO+XViD+-+JUSTiCE&amp;tr=udp%3A%2F%2Ftracker.openbittorrent.com%3A80&amp;tr=udp%3A%2F%2Fopen.demonii.com%3A1337&amp;tr=udp%3A%2F%2Ftracker.coppersurfer.tk%3A6969&amp;tr=udp%3A%2F%2Fexodus.desync.com%3A6969","seeders":1,"leechers":0,"uploader":"sceneline","files":5,"time":1366607088,"description":"-\n &lt;a href=&quot;\nhttp://www.Speed.&quot; rel=&quot;nofollow&quot; target=&quot;_NEW&quot;&gt;\nhttp://www.Speed.&lt;/a&gt; Cd       the fast  and The Hottest Private Tracker on the net &lt;a href=&quot;\nhttp://www.Speed.&quot; rel=&quot;nofollow&quot; target=&quot;_NEW&quot;&gt;\nhttp://www.Speed.&lt;/a&gt; Cd\n\nPlease Seed back to make the speed Faster!!\n ............ NFO .............\n-\n &lt;a href=&quot;\nhttp://www.Speed.&quot; rel=&quot;nofollow&quot; target=&quot;_NEW&quot;&gt;\nhttp://www.Speed.&lt;/a&gt; CdThe Host 2013 HDRiP READNFO XViD - JUSTiCE\n\n\n\nSOURCE : The.Host.2013.720p.KOR.HDRip.H264-KTH\n\n\nVideo and audio both cleaned and given justice.\nCheck sample and see.....\n\n\nReadnfo : \n\nWell considering the bottom line of subs were on the black borders and only the top line\nwas actually on the video we have opted to crop the video to clear all subs.\nAlso have changed the brightness,contrast,rgb colours aswell as resized and added some sharpness...\nall only small tweaks ,but for the better IMHO.\nWill be honest and say not all the noise/hiss has gone because there is like a weird alien spooky sound in \nparts of the video and soon has you start cleaning too much you end up wrecking it,so have just done a low\nclean up so not to mess up what should be there ;-)\n\nAudio was decent but there seemed to be some noise in the background,so cleaned it all up in Adobe\nchanging the eq bands and lowering the DB's a touch.\n\nOh 720p will be coming aswell aslong as retail doesn't hit before the next day or so.....\n\n\n\nVideo\nID                               : 0\nFormat                           : MPEG-4 Visual\nFormat profile                   : Advanced Simple@L5\nFormat settings, BVOP            : 2\nFormat settings, QPel            : No\nFormat settings, GMC             : No warppoints\nFormat settings, Matrix          : Default (MPEG)\nMuxing mode                      : Packed bitstream\nCodec ID                         : XVID\nCodec ID/Hint                    : XviD\nDuration                         : 2h 10mn\nBit rate                         : 2 105 Kbps\nWidth                            : 720 pixels\nHeight                           : 272 pixels\nDisplay aspect ratio             : 2.647\nFrame rate                       : 29.970 fps\nColor space                      : YUV\nChroma subsampling               : 4:2:0\nBit depth                        : 8 bits\nScan type                        : Progressive\nCompression mode                 : Lossy\nBits/(Pixel*Frame)               : 0.359\nStream size                      : 1.92 GiB (94%)\nWriting library                  : XviD 64\n\nAudio\nID                               : 1\nFormat                           : MPEG Audio\nFormat version                   : Version 1\nFormat profile                   : Layer 3\nMode                             : Joint stereo\nMode extension                   : MS Stereo\nCodec ID                         : 55\nCodec ID/Hint                    : MP3\nDuration                         : 2h 10mn\nBit rate mode                    : Constant\nBit rate                         : 128 Kbps\nChannel(s)                       : 2 channels\nSampling rate                    : 48.0 KHz\nCompression mode                 : Lossy\nStream size                      : 120 MiB (6%)\nAlignment                        : Split accross interleaves\nInterleave, duration             : 33 ms (1.00 video frame)\nInterleave, preload duration     : 500 ms\n\n\n\n[IMG]http://lookpic.com/O/i2/609/4eKaQkc9.png[/IMG]\n[IMG]http://lookpic.com/O/i2/1260/NH0GXGN7.png[/IMG]\n[IMG]http://lookpic.com/O/i2/688/v6YWO7Cy.png[/IMG]\n[IMG]http://lookpic.com/O/i2/1278/RaFqpqwk.png[/IMG]\n[IMG]http://lookpic.com/O/i2/305/r8rEmPAR.png[/IMG]\n[IMG]http://lookpic.com/O/i2/724/OdxGNKEu.png[/IMG]\n[IMG]http://lookpic.com/O/i2/172/KUSILnrv.png[/IMG]","torrent":{"xt":"urn:btih:cdc0590ce60477e4858ed411f040ef1eaaab2f68","amp;dn":"The+Host+2013+HDRiP+READNFO+XViD+-+JUSTiCE","amp;tr":["udp%3A%2F%2Ftracker.openbittorrent.com%3A80","udp%3A%2F%2Fopen.demonii.com%3A1337","udp%3A%2F%2Ftracker.coppersurfer.tk%3A6969","udp%3A%2F%2Fexodus.desync.com%3A6969"],"infoHash":"cdc0590ce60477e4858ed411f040ef1eaaab2f68","infoHashBuffer":{"type":"Buffer","data":[205,192,89,12,230,4,119,228,133,142,212,17,240,64,239,30,170,171,47,104]},"announce":[],"urlList":[]}}